<svg width="1415" height="427" viewBox="0 0 1415 427" fill="none" xmlns="http://www.w3.org/2000/svg">
<path d="M652.543 105.24H723.748V114.801C714.518 120.954 705.507 125.35 696.717 127.987V339.956H677.926L558.261 158.315L545.404 132.602H544.415L547.382 158.315V314.902C556.393 317.319 564.854 321.165 572.766 326.44V336H501.56V326.44C505.516 324.022 509.692 321.935 514.087 320.176C518.702 318.199 523.537 316.44 528.592 314.902V126.009C524.196 124.251 519.801 122.383 515.406 120.405C511.23 118.427 507.274 116.449 503.538 114.471V105.24H559.25L663.092 261.827L678.256 290.178H679.575L677.926 261.827V127.987C673.311 126.009 668.806 123.921 664.41 121.723C660.235 119.526 656.279 117.218 652.543 114.801V105.24ZM880.474 312.924C878.716 316.66 875.969 320.176 872.233 323.473C868.497 326.77 864.211 329.627 859.376 332.044C854.541 334.462 849.267 336.33 843.553 337.648C837.839 339.187 832.015 339.956 826.081 339.956C813.115 339.956 801.686 337.978 791.797 334.022C781.907 329.846 773.666 324.022 767.073 316.55C760.479 308.858 755.425 299.738 751.908 289.189C748.612 278.64 746.964 266.772 746.964 253.586C746.964 225.455 753.447 204.028 766.413 189.303C779.38 174.578 797.731 167.216 821.466 167.216C829.158 167.216 836.74 168.315 844.212 170.512C851.684 172.49 858.277 175.897 863.992 180.732C869.925 185.567 874.65 192.05 878.167 200.182C881.903 208.093 883.771 217.983 883.771 229.851C883.771 233.587 883.551 237.433 883.112 241.389C882.892 245.125 882.342 249.19 881.463 253.586H778.611C778.611 262.816 779.709 271.497 781.907 279.629C784.325 287.541 787.841 294.463 792.456 300.397C797.071 306.331 802.895 311.056 809.928 314.572C816.961 317.869 825.202 319.517 834.652 319.517C842.344 319.517 850.146 318.418 858.058 316.221C865.969 314.023 871.903 311.166 875.859 307.65L880.474 312.924ZM820.147 181.721C807.62 181.721 798.06 186.006 791.467 194.577C784.874 202.929 780.918 217.763 779.599 239.081H852.124C852.344 237.103 852.454 235.235 852.454 233.477C852.673 231.499 852.783 229.631 852.783 227.873C852.783 213.807 850.146 202.599 844.871 194.248C839.597 185.896 831.356 181.721 820.147 181.721ZM996.49 298.419C996.49 292.266 994.512 287.101 990.556 282.925C986.82 278.53 981.985 274.464 976.052 270.728C970.118 266.992 963.744 263.366 956.931 259.849C950.338 256.333 944.075 252.267 938.141 247.652C932.207 242.817 927.262 237.323 923.306 231.169C919.57 225.016 917.702 217.434 917.702 208.423C917.702 202.489 919.021 196.995 921.658 191.94C924.515 186.885 928.251 182.6 932.867 179.084C937.482 175.347 942.866 172.49 949.02 170.512C955.173 168.315 961.766 167.216 968.799 167.216C980.667 167.216 990.337 167.875 997.809 169.194C1005.5 170.512 1012.86 172.381 1019.9 174.798C1019.02 181.831 1017.92 188.973 1016.6 196.226C1015.5 203.258 1013.85 210.511 1011.65 217.983H1003.41L990.886 184.358C988.249 183.259 985.282 182.6 981.985 182.38C978.689 181.941 975.282 181.721 971.766 181.721C967.81 181.721 964.294 182.49 961.217 184.028C958.36 185.347 955.833 187.105 953.635 189.303C951.657 191.501 950.119 194.028 949.02 196.885C947.921 199.742 947.371 202.599 947.371 205.456C947.371 211.39 949.239 216.554 952.976 220.95C956.931 225.126 961.876 229.081 967.81 232.818C973.744 236.334 980.007 239.85 986.601 243.367C993.413 246.883 999.787 250.839 1005.72 255.234C1011.65 259.63 1016.49 264.794 1020.23 270.728C1024.18 276.442 1026.16 283.365 1026.16 291.496C1026.16 298.969 1024.51 305.672 1021.21 311.605C1018.14 317.539 1013.74 322.594 1008.03 326.77C1002.53 330.945 996.051 334.132 988.578 336.33C981.326 338.747 973.524 339.956 965.173 339.956C955.723 339.956 947.042 339.077 939.13 337.319C931.218 335.78 922.977 333.473 914.406 330.396C914.845 322.484 915.834 314.902 917.373 307.65C918.911 300.177 920.889 293.035 923.306 286.222H931.548L946.053 322.154C948.47 323.913 951.327 324.902 954.624 325.121C958.14 325.341 961.327 325.451 964.184 325.451C973.854 325.451 981.656 322.814 987.59 317.539C993.523 312.265 996.49 305.891 996.49 298.419ZM1046.8 179.084C1055.15 173.809 1063.94 170.073 1073.17 167.875V139.854C1076.03 137.657 1079.33 135.569 1083.06 133.591C1087.02 131.393 1090.87 129.525 1094.6 127.987H1102.84V171.172H1152.29V187.655H1102.84V283.255C1102.84 296.441 1104.93 305.781 1109.11 311.276C1113.28 316.77 1119.55 319.517 1127.9 319.517C1131.85 319.517 1136.8 319.297 1142.73 318.858C1148.67 318.199 1153.72 317.1 1157.9 315.561L1160.2 320.506C1158.45 322.484 1155.92 324.572 1152.62 326.77C1149.54 328.967 1145.92 331.055 1141.74 333.033C1137.79 335.011 1133.39 336.659 1128.56 337.978C1123.72 339.297 1118.78 339.956 1113.72 339.956C1100.54 339.956 1090.43 336.22 1083.39 328.748C1076.58 321.275 1073.17 309.188 1073.17 292.485V187.655H1046.8V179.084ZM1177.71 253.586C1177.71 239.74 1179.46 227.543 1182.98 216.994C1186.72 206.225 1191.99 197.215 1198.8 189.962C1205.62 182.49 1213.75 176.886 1223.2 173.15C1232.87 169.194 1243.53 167.216 1255.18 167.216C1268.8 167.216 1280.56 169.304 1290.45 173.479C1300.34 177.655 1308.36 183.589 1314.51 191.281C1320.89 198.753 1325.5 207.764 1328.36 218.313C1331.44 228.862 1332.97 240.619 1332.97 253.586C1332.97 281.277 1325.94 302.595 1311.88 317.539C1297.81 332.484 1278.91 339.956 1255.18 339.956C1241.99 339.956 1230.56 337.978 1220.89 334.022C1211.22 329.846 1203.2 324.022 1196.83 316.55C1190.45 308.858 1185.62 299.738 1182.32 289.189C1179.24 278.42 1177.71 266.552 1177.71 253.586ZM1209.35 253.586C1209.35 263.476 1210.23 272.816 1211.99 281.607C1213.97 290.398 1216.94 298.09 1220.89 304.683C1225.07 311.056 1230.45 316.111 1237.04 319.847C1243.64 323.583 1251.55 325.451 1260.78 325.451C1272.65 325.451 1282.32 319.627 1289.79 307.979C1297.48 296.331 1301.33 278.2 1301.33 253.586C1301.33 243.476 1300.34 234.136 1298.36 225.565C1296.6 216.774 1293.75 209.192 1289.79 202.819C1285.83 196.226 1280.78 191.061 1274.62 187.325C1268.47 183.589 1261.11 181.721 1252.54 181.721C1239.57 181.721 1229.13 187.545 1221.22 199.193C1213.31 210.84 1209.35 228.972 1209.35 253.586Z" fill="#294892"/>
<rect x="50" y="28" width="377" height="371" rx="30" fill="#294892"/>
<path fill-rule="evenodd" clip-rule="evenodd" d="M204.707 101.88C185.217 105.36 171.037 117.665 159.214 141.362C153.964 151.885 154.652 154.788 162.845 156.696C172.03 158.835 175.523 162.208 181.907 175.107C189.524 190.496 200.808 200.923 214.761 205.463C216.799 206.127 217.278 204.854 210.711 216.218C207.592 221.616 204.567 226.86 203.99 227.871C202.72 230.095 203.364 230.089 195.916 227.944C170.534 220.635 144.618 209.702 123.784 197.516C116.283 193.128 114.924 192.859 112.317 195.248C107.992 199.212 109.866 202.29 120.189 208.181C158.822 230.227 202.379 244.54 249.587 250.697C252.746 251.109 255.262 251.515 255.179 251.599C254.48 252.298 226.779 260.355 215.517 263.135L211.41 264.149L205.355 261.394C189.899 254.361 171.778 244.322 154.759 233.365C146.691 228.171 146.185 227.984 143.567 229.251C140.471 230.751 139.398 234.108 141.117 236.926C142.971 239.967 168.283 255.196 187.081 264.581C190.35 266.213 193.025 267.662 193.027 267.802C193.035 268.399 167.096 271.685 157.988 272.241L154.298 272.466L148.258 267.649C136.307 258.116 120.214 241.108 108.963 226.117C105.535 221.551 103.533 219.263 102.642 218.895C99.1651 217.454 95.2979 220.161 95.2979 224.036C95.2979 228.925 117.408 255.256 133.009 268.944C135.373 271.019 137.148 272.769 136.952 272.834C136.757 272.899 132.704 272.587 127.947 272.142C116.78 271.095 114.757 271.82 114.757 276.87C114.757 282.152 118.509 283.145 140.272 283.626L150.867 283.86L158.003 288.505C165.189 293.183 173.172 298.017 176.573 299.752C177.584 300.268 178.333 300.769 178.237 300.865C177.898 301.203 156.841 302.355 150.961 302.358C142.776 302.361 140.275 303.676 140.275 307.982C140.275 312.488 142.902 313.759 151.469 313.403C166.991 312.756 186.331 311.34 195.705 310.162C198.574 309.802 198.847 309.855 204.797 311.935C243.202 325.359 286.17 326.835 342.448 316.661C351.92 314.949 351.96 314.937 353.36 313.414C356.656 309.83 353.863 303.972 349.182 304.652C348.328 304.776 342.603 305.674 336.459 306.648C291.964 313.696 262.195 314.041 229.703 307.886C226.921 307.359 224.701 306.87 224.771 306.801C224.841 306.731 227.701 306.185 231.128 305.587C240.252 303.995 253.857 300.876 263.04 298.272L271.087 295.989L276.925 297.013C289.142 299.154 310.063 301.036 312.547 300.216C316.886 298.783 317.552 292.649 313.556 290.914C312.706 290.546 308.994 290.128 303.953 289.834C291.376 289.102 291.532 289.236 299.453 285.977C310.364 281.489 326.678 273.351 328.063 271.705C330.51 268.795 329.208 264.206 325.598 263.014C323.683 262.382 322.789 262.671 316.278 266.019C303.039 272.827 292.029 277.454 278.246 281.998L270.27 284.628L264.445 283.082C254.429 280.425 229.356 271.943 229.356 271.212C229.356 271.055 230.961 270.488 232.924 269.951C243.551 267.044 265.069 259.955 276.277 255.669L281.034 253.849L296.169 253.704C321.877 253.458 339.296 251.888 363.63 247.625C376.801 245.319 378.118 244.637 378.118 240.13C378.118 235.277 375.453 234.063 368.092 235.564C350.821 239.085 332.66 241.478 318.945 242.042C315.694 242.175 312.305 242.376 311.413 242.489C309.085 242.781 309.425 242.195 312.285 240.983C332.138 232.571 386.568 201.962 388.694 198.013C390.576 194.52 388.31 190.399 384.321 190.057C382.288 189.883 381.985 190.027 374.067 194.907C342.963 214.078 317.489 227.226 288.169 239.242L280.601 242.343L273.249 241.848C266.246 241.376 251.329 239.822 250.256 239.451C249.913 239.333 250.424 237.225 251.853 232.871C253.008 229.348 255.32 222.281 256.988 217.168C259.061 210.818 260.2 207.917 260.582 208.019C279.013 212.92 291.497 213.34 307.196 209.586C319.863 206.557 324.056 204.168 324.06 199.975C324.063 197.622 317.763 184.602 312.968 177.05C311.072 174.064 310.946 174.442 315.426 169.708C326.63 157.868 329.139 152.166 324.412 149.285C320.688 147.014 318.764 148.084 312.757 155.764C311.178 157.784 308.784 160.645 307.439 162.122L304.992 164.808L300.521 158.878C280.002 131.671 255.675 111.563 234.812 104.571C226.283 101.713 212.532 100.483 204.707 101.88ZM223.597 113.197C243.608 116.774 271.385 138.649 293.828 168.509L296.951 172.663L295.479 174.2C289.138 180.82 274.218 190.587 263.906 194.869L261.048 196.055L258.799 194.916C249.282 190.093 237.724 180.255 230.861 171.136C227.058 166.083 225.784 164.942 223.572 164.611C220.036 164.08 217.247 166.476 217.247 170.044C217.247 174.166 229.971 188.537 240.65 196.478C244.451 199.304 244.596 199.177 237.897 198.88C215.795 197.897 201.739 188.921 191.932 169.523C185.415 156.635 180.283 151.133 171.822 147.969C168.695 146.8 168.703 147.138 171.687 141.77C184.72 118.334 201.294 109.212 223.597 113.197ZM193.905 136.351C189.192 138.231 188.182 144.775 192.096 148.068C196.995 152.19 203.835 149.215 203.84 142.959C203.844 137.898 198.663 134.451 193.905 136.351ZM304.936 185.058C307.465 189.324 311.088 196.194 311.088 196.723C311.088 198.748 288.75 201.777 280.601 200.858L277.574 200.516L280.601 198.824C287.099 195.191 297.342 187.638 301.119 183.695C303.038 181.692 302.914 181.649 304.936 185.058ZM235.086 209.824C238.427 210.063 242.691 210.131 244.559 209.975L247.957 209.691L247.315 211.51C246.962 212.511 244.901 218.791 242.736 225.466L238.797 237.604L236.347 237.323C233.589 237.007 214.698 233.248 214.142 232.904C213.751 232.662 213.649 232.852 220.716 220.627C227.358 209.139 227.56 208.834 228.346 209.135C228.711 209.275 231.744 209.585 235.086 209.824ZM218.665 278.854C228.439 282.955 233.594 284.917 242.941 288.095L250.256 290.582L247.266 291.254C236.297 293.722 219.076 296.729 206.015 298.459L199.324 299.345L192.609 296.064C185.885 292.779 177.282 288.064 171.449 284.468L168.34 282.551L169.982 282.309C170.885 282.176 176.392 281.366 182.22 280.508C188.047 279.65 196.706 278.207 201.463 277.303C206.22 276.397 210.264 275.632 210.449 275.602C210.634 275.573 214.331 277.036 218.665 278.854Z" fill="white"/>
</svg>
